<svg width="70" height="39" viewBox="0 0 70 39" fill="none" xmlns="http://www.w3.org/2000/svg">
<path d="M64.2192 0.460449H5.78078C2.59315 0.460449 0 2.49793 0 5.00249V18.1629C0 20.6674 2.59315 22.7049 5.78078 22.7049H49.3571V26.2028C46.3558 26.2028 44.5858 27.8832 44.5858 29.7127C44.5858 31.4737 46.2679 33.2224 49.3571 33.2224C49.3571 34.8178 49.3571 35.6667 49.3571 37.301C49.3571 37.9852 50.063 38.5398 50.9337 38.5398H65.0308C65.9015 38.5398 66.6074 37.9852 66.6074 37.301C66.6074 35.579 66.6074 30.0633 66.6074 28.4122C66.6074 26.1393 64.2541 24.2903 61.3612 24.2903H58.2913V22.7051H64.2192C67.4068 22.7051 70 20.6676 70 18.163V5.00266C70 2.49793 67.4068 0.460449 64.2192 0.460449ZM63.454 36.0621H52.5101V34.7882H63.454V36.0621ZM61.3612 26.7673V26.7675C62.5153 26.7675 63.4543 27.5051 63.4543 28.4118V32.3106H52.5103V31.9834C52.5103 31.2993 51.8044 30.7446 50.9337 30.7446H49.0528C48.3284 30.7446 47.7389 30.2815 47.7389 29.7124C47.7389 29.1432 48.3284 28.6799 49.0528 28.6799H50.9337C51.8044 28.6799 52.5103 28.1253 52.5103 27.4412C52.5103 25.8866 52.5103 21.3974 52.5103 19.8553C52.5103 19.2861 53.0997 18.8229 53.8241 18.8229C54.5485 18.8229 55.1379 19.286 55.1379 19.8553C55.1379 23.2073 55.1379 22.1982 55.1379 25.5286C55.1379 26.2127 55.8438 26.7673 56.7145 26.7673H61.3612V26.7673ZM66.8468 18.1629C66.8468 19.3013 65.6682 20.2274 64.2192 20.2274H58.2911V19.8556C58.2911 17.9202 56.2871 16.3457 53.8241 16.3457C51.3611 16.3457 49.3571 17.9202 49.3571 19.8556V20.2274H5.78078C4.3318 20.2274 3.15315 19.3013 3.15315 18.1629V5.00249C3.15315 3.86401 4.3318 2.93793 5.78078 2.93793H64.2192C65.6682 2.93793 66.8468 3.86401 66.8468 5.00249V18.1629Z" fill="#B8B8B8" fill-opacity="0.62"/>
<path d="M13.4034 8.03784H11.9605C11.5815 8.03784 11.2881 8.26841 11.2881 8.56621V14.2343C11.2881 14.5226 11.5815 14.7627 11.9605 14.7627H13.4034C15.7633 14.7627 17.6707 13.2544 17.6707 11.3905C17.6707 9.54613 15.7633 8.03784 13.4034 8.03784ZM13.4034 13.6964H12.6454V9.10415H13.4034C15.0174 9.10415 16.3134 10.1321 16.3134 11.3907C16.3134 12.6684 15.0174 13.6868 13.4034 13.6964Z" fill="#B8B8B8" fill-opacity="0.62"/>
<path d="M23.7241 7.84583C21.3721 7.84583 19.518 9.40383 19.518 11.3044C19.518 13.2956 21.4892 14.763 23.7241 14.763C25.9614 14.763 27.8814 13.1993 27.8814 11.3044C27.8814 9.48955 26.0625 7.84583 23.7241 7.84583ZM23.7241 13.6677C22.194 13.6677 20.9119 12.6269 20.9119 11.3044C20.9119 10.0495 22.092 8.94104 23.7241 8.94104C25.2711 8.94104 26.4875 10.0424 26.4875 11.3044C26.4875 12.646 25.1529 13.6677 23.7241 13.6677Z" fill="#B8B8B8" fill-opacity="0.62"/>
<path d="M35.7938 8.13408C35.4269 8.13408 35.1335 8.37423 35.1335 8.65287V12.611L31.1841 8.31675C30.82 7.91293 29.9468 8.12235 29.9859 8.64345C29.9859 8.65303 29.9859 8.65303 29.9859 8.65303V14.2348C29.9859 14.523 30.2793 14.7631 30.6583 14.7631C31.0129 14.7631 31.3186 14.523 31.3186 14.2348V10.2475L35.2312 14.5131C35.2434 14.5322 35.2678 14.5514 35.2922 14.5707C35.7099 14.9642 36.466 14.7034 36.466 14.2345V8.6527C36.4662 8.37423 36.1606 8.13408 35.7938 8.13408Z" fill="#B8B8B8" fill-opacity="0.62"/>
<path d="M42.9234 8.38362C42.6842 7.92397 41.8587 7.93916 41.6273 8.38362L38.925 14.0422C38.6286 14.7175 39.8649 15.0634 40.1966 14.4265L40.7957 13.1775H43.767L44.3661 14.4265C44.507 14.7309 44.9495 14.8196 45.2219 14.7339C45.5765 14.6282 45.7478 14.3208 45.6255 14.0422L42.9234 8.38362ZM41.2849 12.121L42.2754 10.0554L43.2657 12.121H41.2849Z" fill="#B8B8B8" fill-opacity="0.62"/>
<path d="M51.3123 8.03784H46.0913C45.1851 8.03784 45.2173 9.10431 46.0913 9.10431H48.0231V14.2345C48.0231 14.9303 49.3681 14.9388 49.3681 14.2345V9.10431H51.3123C51.6791 9.10431 51.9848 8.85458 51.9848 8.56637C51.9846 8.26825 51.6789 8.03784 51.3123 8.03784Z" fill="#B8B8B8" fill-opacity="0.62"/>
<path d="M58.6739 9.10439C59.0283 9.10439 59.3463 8.86424 59.3463 8.56645C59.3463 8.26866 59.0283 8.03809 58.6739 8.03809H54.7123C54.6879 8.03809 54.6879 8.03809 54.6879 8.03809H54.6757C54.2967 8.03809 54.0032 8.26866 54.0032 8.56645V14.2346C54.0032 14.5228 54.2967 14.7629 54.6757 14.7629L54.6879 14.7534C54.6879 14.7534 54.6879 14.7629 54.7123 14.7629H58.6739C59.0283 14.7629 59.3463 14.5228 59.3463 14.2346C59.3463 13.9368 59.0283 13.6966 58.6739 13.6966H55.3603V11.9289H58.2093C58.5761 11.9289 58.8818 11.6887 58.8818 11.3909C58.8818 11.1123 58.5761 10.8626 58.2093 10.8626H55.3603V9.10439H58.6739Z" fill="#B8B8B8" fill-opacity="0.62"/>
</svg>
