<svg width="50" height="50" viewBox="0 0 50 50" fill="none" xmlns="http://www.w3.org/2000/svg">
<path d="M25 0C18.2104 0 17.359 0.0288086 14.6925 0.150488C12.0315 0.271875 10.2142 0.694434 8.62393 1.3125C6.97998 1.95137 5.58574 2.80625 4.196 4.19609C2.80615 5.58584 1.95127 6.98008 1.3124 8.62402C0.694336 10.2142 0.271777 12.0315 0.150391 14.6925C0.0287109 17.359 0 18.2104 0 25C0 31.7895 0.0287109 32.6408 0.150391 35.3073C0.271777 37.9683 0.694336 39.7856 1.3124 41.3758C1.95127 43.0197 2.80615 44.414 4.196 45.8039C5.58574 47.1937 6.97998 48.0485 8.62393 48.6874C10.2142 49.3054 12.0315 49.728 14.6925 49.8494C17.359 49.971 18.2104 49.9998 25 49.9998C31.7895 49.9998 32.6408 49.971 35.3073 49.8494C37.9683 49.728 39.7856 49.3054 41.3758 48.6874C43.0197 48.0485 44.414 47.1937 45.8039 45.8039C47.1937 44.414 48.0485 43.0197 48.6874 41.3758C49.3054 39.7856 49.728 37.9683 49.8494 35.3073C49.971 32.6408 49.9998 31.7895 49.9998 25C49.9998 18.2104 49.971 17.359 49.8494 14.6925C49.728 12.0315 49.3054 10.2142 48.6874 8.62402C48.0485 6.98008 47.1937 5.58584 45.8039 4.19609C44.414 2.80625 43.0197 1.95137 41.3758 1.3125C39.7856 0.694434 37.9683 0.271875 35.3073 0.150488C32.6408 0.0288086 31.7895 0 25 0V0ZM25 4.50459C31.6752 4.50459 32.4659 4.52998 35.1021 4.65029C37.5395 4.76152 38.8632 5.16875 39.7441 5.51103C40.911 5.96455 41.7438 6.50635 42.6187 7.38115C43.4936 8.25596 44.0353 9.08887 44.4888 10.2557C44.8312 11.1366 45.2384 12.4604 45.3496 14.8978C45.4698 17.534 45.4953 18.3247 45.4953 25C45.4953 31.6752 45.4698 32.4659 45.3496 35.1021C45.2384 37.5395 44.8312 38.8632 44.4888 39.7441C44.0353 40.911 43.4936 41.7438 42.6187 42.6187C41.7438 43.4936 40.911 44.0353 39.7441 44.4888C38.8632 44.8312 37.5395 45.2384 35.1021 45.3495C32.4663 45.4698 31.6757 45.4953 25 45.4953C18.3241 45.4953 17.5337 45.4698 14.8978 45.3495C12.4604 45.2384 11.1366 44.8312 10.2557 44.4888C9.08877 44.0353 8.25596 43.4936 7.38105 42.6187C6.50625 41.7438 5.96445 40.911 5.51103 39.7441C5.16865 38.8632 4.76143 37.5395 4.6502 35.1021C4.52988 32.4659 4.50449 31.6752 4.50449 25C4.50449 18.3247 4.52988 17.534 4.6502 14.8978C4.76143 12.4604 5.16865 11.1366 5.51103 10.2557C5.96445 9.08887 6.50625 8.25596 7.38105 7.38115C8.25596 6.50635 9.08877 5.96455 10.2557 5.51103C11.1366 5.16875 12.4604 4.76152 14.8978 4.65029C17.534 4.52998 18.3247 4.50459 25 4.50459Z" fill="url(#paint0_linear_5_30)"/>
<path d="M25 33.3332C20.3976 33.3332 16.6666 29.6022 16.6666 25C16.6666 20.3976 20.3976 16.6666 25 16.6666C29.6022 16.6666 33.3332 20.3976 33.3332 25C33.3332 29.6022 29.6022 33.3332 25 33.3332ZM25 12.1621C17.9098 12.1621 12.1621 17.9098 12.1621 25C12.1621 32.09 17.9098 37.8377 25 37.8377C32.09 37.8377 37.8377 32.09 37.8377 25C37.8377 17.9098 32.09 12.1621 25 12.1621Z" fill="url(#paint1_linear_5_30)"/>
<path d="M41.345 11.6549C41.345 13.3118 40.0018 14.6549 38.345 14.6549C36.6881 14.6549 35.345 13.3118 35.345 11.6549C35.345 9.99805 36.6881 8.65498 38.345 8.65498C40.0018 8.65498 41.345 9.99805 41.345 11.6549Z" fill="url(#paint2_linear_5_30)"/>
<defs>
<linearGradient id="paint0_linear_5_30" x1="29.376" y1="-2.64925" x2="14.7648" y2="45.6222" gradientUnits="userSpaceOnUse">
<stop stop-color="#515BD4"/>
<stop offset="0.26" stop-color="#9510B8"/>
<stop offset="0.66" stop-color="#E51804"/>
<stop offset="1" stop-color="#FEDA77"/>
</linearGradient>
<linearGradient id="paint1_linear_5_30" x1="29.376" y1="-2.64925" x2="14.7648" y2="45.6222" gradientUnits="userSpaceOnUse">
<stop stop-color="#515BD4"/>
<stop offset="0.26" stop-color="#9510B8"/>
<stop offset="0.66" stop-color="#E51804"/>
<stop offset="1" stop-color="#FFBF00"/>
</linearGradient>
<linearGradient id="paint2_linear_5_30" x1="29.376" y1="-2.64924" x2="14.7649" y2="45.6222" gradientUnits="userSpaceOnUse">
<stop stop-color="#515BD4"/>
<stop offset="0.26" stop-color="#9510B8"/>
<stop offset="0.66" stop-color="#E51804"/>
<stop offset="1" stop-color="#FFBF00"/>
</linearGradient>
</defs>
</svg>
