<svg width="30" height="30" viewBox="0 0 30 30" fill="none" xmlns="http://www.w3.org/2000/svg">
<path d="M21.7603 0L20.4346 1.31836L24.6899 5.58105H20.8594C16.875 5.58105 13.5205 7.33154 11.2061 10.0488C8.8916 12.7661 7.57324 16.4282 7.5 20.3247C7.5 20.4346 7.5 20.5151 7.5 20.5811H9.375C9.375 20.4858 9.375 20.4126 9.375 20.3687C9.44092 16.8604 10.6274 13.6084 12.627 11.2646C14.6338 8.9209 17.417 7.45605 20.8594 7.45605H24.6899L20.4346 11.7188L21.7603 13.0371L28.2788 6.51855L21.7603 0ZM3.75 5.58105V21.5186C3.75 23.064 5.01709 24.3311 6.5625 24.3311H25.3125C26.8579 24.3311 28.125 23.064 28.125 21.5186V14.9561H26.25V21.5186C26.25 22.0459 25.8398 22.4561 25.3125 22.4561H6.5625C6.03516 22.4561 5.625 22.0459 5.625 21.5186V5.58105H3.75Z" fill="#B8B8B8"/>
</svg>
