<svg width="50" height="50" viewBox="0 0 50 50" fill="none" xmlns="http://www.w3.org/2000/svg">
<path fill-rule="evenodd" clip-rule="evenodd" d="M6.81111 0H43.1875C46.95 0 50 3.05 50 6.81111V43.1875C50 46.95 46.95 50 43.1889 50H6.81111C3.05 50 0 46.95 0 43.1889V6.81111C0 3.05 3.05 0 6.81111 0Z" fill="#212121"/>
<path fill-rule="evenodd" clip-rule="evenodd" d="M32.3657 19.2035C34.5173 20.8855 37.1535 21.8743 40 21.8743V15.8829C39.4607 15.8829 38.9242 15.8217 38.3972 15.6992V20.4149C35.5507 20.4149 32.9158 19.4246 30.7629 17.7441V29.9689C30.7629 36.0844 26.229 41.0421 20.637 41.0421C18.551 41.0421 16.611 40.352 15 39.1689C16.839 41.2243 19.4029 42.5 22.2398 42.5C27.8318 42.5 32.3657 37.5423 32.3657 31.4269V19.2035ZM34.3439 13.1598C33.2449 11.8468 32.5227 10.1484 32.3657 8.27077V7.5H30.8462C31.2284 9.88551 32.5336 11.9245 34.3439 13.1598ZM18.5373 34.4771C17.9229 33.5958 17.5912 32.5188 17.5926 31.4104C17.5926 28.6126 19.6663 26.3451 22.2248 26.3451C22.7012 26.3451 23.175 26.4243 23.6296 26.5826V20.4583C23.0985 20.3791 22.5633 20.3447 22.0268 20.3567V25.1232C21.5722 24.9649 21.0985 24.8857 20.6206 24.8857C18.0622 24.8857 15.9884 27.1532 15.9884 29.951C15.9898 31.9302 17.026 33.6436 18.5373 34.4771Z" fill="#EC407A"/>
<path fill-rule="evenodd" clip-rule="evenodd" d="M31.2852 17.4254C33.7413 19.055 36.7506 20.0131 40 20.0131V15.4441C38.186 15.0852 36.5808 14.2052 35.373 12.9823C33.3065 11.7854 31.8182 9.8113 31.3818 7.5H26.8265V30.6824C26.8156 33.3845 24.453 35.5728 21.5387 35.5728C19.8213 35.5728 18.2956 34.813 17.3294 33.6363C15.6042 32.8287 14.4213 31.1687 14.4213 29.2525C14.4213 26.5418 16.7886 24.3448 19.7091 24.3448C20.2686 24.3448 20.8078 24.4259 21.3143 24.5749V19.9581C15.0431 20.0783 10 24.834 10 30.6839C10 33.6045 11.2561 36.2516 13.2945 38.1851C15.1335 39.3314 17.3481 40 19.7293 40C26.1127 40 31.2883 35.1965 31.2883 29.2714L31.2852 17.4254Z" fill="white"/>
<path fill-rule="evenodd" clip-rule="evenodd" d="M40 16.9764V15.725C38.3293 15.7279 36.6937 15.2971 35.276 14.4824C36.5298 15.747 38.1814 16.6189 40 16.9764ZM31.1996 8.93165C31.1566 8.70745 31.1248 8.48325 31.1025 8.25612V7.5H24.6808V30.9734C24.6713 33.7093 22.2575 35.9249 19.2822 35.9249C18.4086 35.9249 17.5845 35.7344 16.8541 35.3944C17.8406 36.5857 19.3983 37.355 21.1517 37.355C24.1271 37.355 26.5392 35.1394 26.5504 32.4036V8.93165H31.1996ZM20.921 21.5454V20.2134C20.3848 20.146 19.8438 20.1123 19.3013 20.1123C12.7825 20.1123 7.5 24.9758 7.5 30.9749C7.5 34.7365 9.5764 38.0511 12.7316 40C10.6504 38.0423 9.36796 35.3622 9.36796 32.4051C9.36796 26.4821 14.5184 21.667 20.921 21.5454Z" fill="#81D4FA"/>
</svg>
